<svg width="800" height="600" viewBox="0 0 800 600" fill="none" xmlns="http://www.w3.org/2000/svg">
  <defs>
    <linearGradient id="g4" x1="90" y1="60" x2="720" y2="560" gradientUnits="userSpaceOnUse">
      <stop stop-color="#a9d2be" />
      <stop offset="0.45" stop-color="#4f7761" />
      <stop offset="1" stop-color="#20362d" />
    </linearGradient>
  </defs>
  <rect width="800" height="600" rx="48" fill="url(#g4)"/>
  <circle cx="640" cy="120" r="115" fill="#fff2cc" fill-opacity="0.14"/>
  <rect x="190" y="150" width="420" height="300" rx="34" fill="#f7efe0"/>
  <path d="M240 210C300 170 360 170 420 210C480 250 540 250 560 230" stroke="#5b7d68" stroke-width="16" stroke-linecap="round"/>
  <path d="M240 280C300 240 360 240 420 280C480 320 540 320 560 300" stroke="#7b9a84" stroke-width="16" stroke-linecap="round"/>
  <path d="M240 350C300 310 360 310 420 350C480 390 540 390 560 370" stroke="#4a6656" stroke-width="16" stroke-linecap="round"/>
  <text x="64" y="520" fill="#fff7df" font-family="Arial, sans-serif" font-size="42" font-weight="700">Batik Tulis Ganjuran</text>
</svg>