<svg width="800" height="600" viewBox="0 0 800 600" fill="none" xmlns="http://www.w3.org/2000/svg">
  <defs>
    <linearGradient id="g1" x1="120" y1="80" x2="700" y2="540" gradientUnits="userSpaceOnUse">
      <stop stop-color="#f8e7b7" />
      <stop offset="0.45" stop-color="#c89548" />
      <stop offset="1" stop-color="#6f4d27" />
    </linearGradient>
  </defs>
  <rect width="800" height="600" rx="48" fill="url(#g1)"/>
  <circle cx="150" cy="130" r="80" fill="#fff4cf" fill-opacity="0.18"/>
  <circle cx="670" cy="110" r="110" fill="#fff4cf" fill-opacity="0.12"/>
  <ellipse cx="400" cy="365" rx="240" ry="150" fill="#f5deb3" fill-opacity="0.2"/>
  <path d="M240 334C300 281 500 281 560 334C590 360 580 430 520 450C465 468 335 468 280 450C220 430 210 360 240 334Z" fill="#fff7df"/>
  <path d="M270 332C320 305 480 305 530 332" stroke="#8c5e2a" stroke-width="18" stroke-linecap="round"/>
  <path d="M290 390C340 360 460 360 510 390" stroke="#b8823f" stroke-width="16" stroke-linecap="round"/>
  <text x="64" y="520" fill="#fff7df" font-family="Arial, sans-serif" font-size="42" font-weight="700">Slondok Bu Nuryani</text>
</svg>